<svg width="22" height="22" viewBox="0 0 22 22" fill="none" xmlns="http://www.w3.org/2000/svg">
<g id="Group">
<g id="professional-network-linkedin">
<path id="Shape" d="M5.5 20.8828V21.3828C5.77614 21.3828 6 21.159 6 20.8828H5.5ZM0.5 20.8828H0C0 21.159 0.223858 21.3828 0.5 21.3828L0.5 20.8828ZM0.5 7.88281V7.38281C0.223858 7.38281 0 7.60667 0 7.88281H0.5ZM5.5 7.88281H6C6 7.60667 5.77614 7.38281 5.5 7.38281V7.88281ZM12.5 20.8828V21.3828C12.7761 21.3828 13 21.159 13 20.8828H12.5ZM7.5 20.8828H7C7 21.159 7.22386 21.3828 7.5 21.3828V20.8828ZM7.5 7.88281V7.38281C7.22386 7.38281 7 7.60667 7 7.88281H7.5ZM12.5 7.88281H13C13 7.60667 12.7761 7.38281 12.5 7.38281V7.88281ZM12.5 9.36781H12C12 9.56257 12.1131 9.73961 12.2898 9.82149C12.4665 9.90336 12.6747 9.87517 12.8233 9.74924L12.5 9.36781ZM16.49 7.87281V7.37276L16.483 7.37286L16.49 7.87281ZM21.5 20.8828V21.3828C21.7761 21.3828 22 21.159 22 20.8828H21.5ZM16.5 20.8828H16C16 21.159 16.2239 21.3828 16.5 21.3828V20.8828ZM5.5 20.3828H0.5V21.3828H5.5V20.3828ZM1 20.8828V7.88281H0V20.8828H1ZM0.5 8.38281H5.5V7.38281H0.5V8.38281ZM5 7.88281V20.8828H6V7.88281H5ZM14.5 11.3828C13.1193 11.3828 12 12.5021 12 13.8828H13C13 13.0544 13.6716 12.3828 14.5 12.3828V11.3828ZM12 13.8828V20.8828H13V13.8828H12ZM12.5 20.3828H7.5V21.3828H12.5V20.3828ZM8 20.8828V7.88281H7V20.8828H8ZM7.5 8.38281H12.5V7.38281H7.5V8.38281ZM12 7.88281V9.36781H13V7.88281H12ZM12.8233 9.74924C13.8511 8.87814 15.1498 8.39153 16.497 8.37276L16.483 7.37286C14.9039 7.39486 13.3815 7.96527 12.1767 8.98638L12.8233 9.74924ZM16.49 8.37281C17.8378 8.37281 18.9426 8.86797 19.7201 9.81038C20.5066 10.7638 21 12.2268 21 14.2278H22C22 12.0738 21.4694 10.3594 20.4914 9.17399C19.5044 7.97766 18.1042 7.37281 16.49 7.37281V8.37281ZM21 14.2278V20.8828H22V14.2278H21ZM21.5 20.3828H16.5V21.3828H21.5V20.3828ZM17 20.8828V13.8828H16V20.8828H17ZM17 13.8828C17 12.5021 15.8807 11.3828 14.5 11.3828V12.3828C15.3284 12.3828 16 13.0544 16 13.8828H17ZM5 3.38281C5 4.48738 4.10457 5.38281 3 5.38281V6.38281C4.65685 6.38281 6 5.03967 6 3.38281H5ZM3 5.38281C1.89543 5.38281 1 4.48738 1 3.38281H0C0 5.03967 1.34315 6.38281 3 6.38281V5.38281ZM1 3.38281C1 2.27824 1.89543 1.38281 3 1.38281V0.382812C1.34315 0.382812 0 1.72596 0 3.38281H1ZM3 1.38281C3.53043 1.38281 4.03914 1.59353 4.41421 1.9686L5.12132 1.26149C4.55871 0.698883 3.79565 0.382812 3 0.382812V1.38281ZM4.41421 1.9686C4.78929 2.34367 5 2.85238 5 3.38281H6C6 2.58716 5.68393 1.8241 5.12132 1.26149L4.41421 1.9686Z" fill="#F5F5F7"/>
</g>
</g>
</svg>
