<svg width="86" height="22" viewBox="0 0 86 22" fill="none" xmlns="http://www.w3.org/2000/svg">
<g id="Profico">
<g id="Profico.">
<path d="M0 1.58257V20.7594H4.26151V14.6565H8.49672C10.6012 14.6565 12.2847 14.0514 13.5737 12.8677C14.8627 11.6576 15.494 10.0793 15.494 8.10636C15.494 6.13344 14.8627 4.5551 13.5737 3.37135C12.311 2.1876 10.6275 1.58257 8.49672 1.58257H0ZM4.26151 11.0263V5.37058H7.918C9.96984 5.37058 10.9958 6.29128 10.9958 8.15898C10.9958 10.0793 9.96984 11.0263 7.918 11.0263H4.26151Z" fill="#F5F5F7"/>
<path d="M20.124 20.7594V14.7354C20.124 11.605 21.5971 9.86884 24.6486 9.89515V6.3965C22.4652 6.3965 20.9921 7.36981 20.2818 9.34273H20.124L19.6242 6.65956H16.1256V20.7594H20.124Z" fill="#F5F5F7"/>
<path d="M30.8645 6.3965C28.7338 6.3965 27.0239 7.08045 25.7349 8.42203C24.4459 9.76362 23.7883 11.5261 23.7883 13.7095C23.7883 15.8928 24.4459 17.6553 25.7349 18.9969C27.0239 20.3385 28.7338 20.9961 30.8645 20.9961C32.969 20.9961 34.6788 20.3385 35.9678 18.9969C37.2568 17.6553 37.9144 15.8928 37.9144 13.7358C37.9144 11.5524 37.2568 9.78993 35.9678 8.44834C34.6788 7.08045 32.969 6.3965 30.8645 6.3965ZM27.8657 13.7095C27.8657 11.2893 28.9968 9.71101 30.8119 9.71101C32.7059 9.71101 33.8108 11.2367 33.8108 13.6832C33.8108 16.1296 32.7059 17.7079 30.8382 17.7079C29.0231 17.7079 27.8657 16.2085 27.8657 13.7095Z" fill="#F5F5F7"/>
<path d="M43.9715 6.65956V5.97561C43.9715 4.81816 44.6291 4.23944 45.9181 4.23944C46.3127 4.23944 46.681 4.29205 47.0756 4.37097V1.21429C46.5495 1.05646 45.8918 0.977539 45.1026 0.977539C41.9197 0.977539 39.9467 2.55588 39.9467 5.68625V6.65956H37.3162V9.89515H39.9467V20.7594H43.9715V9.89515H48.917V20.7594H52.9417V6.65956H43.9715ZM48.917 5.18644H52.9417V1.29321H48.917V5.18644Z" fill="#F5F5F7"/>
<path d="M63.3218 15.5772C63.1376 16.8661 62.1906 17.7342 60.7175 17.7342C58.9024 17.7342 57.7976 16.3663 57.7976 13.7358C57.7976 11.2104 58.7709 9.71101 60.7438 9.71101C62.0854 9.71101 63.085 10.395 63.3218 11.7628H67.2939C67.1624 10.1319 66.5047 8.84292 65.2947 7.86962C64.1109 6.89631 62.6115 6.3965 60.7964 6.3965C58.6657 6.3965 56.9558 7.08045 55.6668 8.42203C54.3779 9.76362 53.7202 11.5261 53.7202 13.7095C53.7202 15.8928 54.3515 17.6816 55.6405 19.0232C56.9295 20.3648 58.6131 21.0224 60.7438 21.0224C62.6115 21.0224 64.1372 20.5226 65.3473 19.523C66.5574 18.5234 67.215 17.2081 67.2939 15.5772H63.3218Z" fill="#F5F5F7"/>
<path d="M74.2339 6.3965C72.1031 6.3965 70.3933 7.08045 69.1043 8.42203C67.8153 9.76362 67.1577 11.5261 67.1577 13.7095C67.1577 15.8928 67.8153 17.6553 69.1043 18.9969C70.3933 20.3385 72.1031 20.9961 74.2339 20.9961C76.3383 20.9961 78.0482 20.3385 79.3372 18.9969C80.6262 17.6553 81.2838 15.8928 81.2838 13.7358C81.2838 11.5524 80.6262 9.78993 79.3372 8.44834C78.0482 7.08045 76.3383 6.3965 74.2339 6.3965ZM71.235 13.7095C71.235 11.2893 72.3662 9.71101 74.1813 9.71101C76.0753 9.71101 77.1801 11.2367 77.1801 13.6832C77.1801 16.1296 76.0753 17.7079 74.2076 17.7079C72.3925 17.7079 71.235 16.2085 71.235 13.7095Z" fill="#F5F5F7"/>
</g>
<path id="Profico._2" d="M85.9987 20.7594V16.4453H82.1055V20.7594H85.9987Z" fill="#F5F5F7"/>
</g>
</svg>
