<svg width="82" height="34" viewBox="0 0 82 34" fill="none" xmlns="http://www.w3.org/2000/svg">
<path id="Vector" d="M19.9231 2.1416V5.93185C19.9231 7.33913 19.1967 8.06658 17.7916 8.06658H8.33579C8.14235 8.06658 8.04733 8.1618 8.04733 8.35554V13.4069C8.04733 13.6007 8.14574 13.6959 8.33579 13.6959H16.3356C17.7407 13.6959 18.467 14.4234 18.467 15.8306V19.6209C18.467 21.0283 17.7407 21.7557 16.3356 21.7557H8.33579C8.14235 21.7557 8.04733 21.8508 8.04733 22.0446V31.855C8.04733 33.2624 7.32095 33.9898 5.91585 33.9898H0.386973C0.142585 33.9898 0 33.8436 0 33.6023V2.13473C0 0.727448 0.726283 0 2.13487 0H17.795C19.1967 0.00677344 19.9231 0.734221 19.9231 2.1416ZM28.9886 0.0067758H23.4597C23.2493 0.0067758 23.1101 0.118935 23.0796 0.309288C23.0762 0.336581 23.0728 0.367162 23.0728 0.397742V31.8653C23.0728 33.2725 23.7991 34 25.2076 34H28.9886C30.3971 34 31.12 33.2725 31.12 31.8653V2.14499C31.1234 0.734224 30.3971 0.0067758 28.9886 0.0067758ZM59.0022 0.0067758H56.5279H55.9035H53.3748C52.1156 0.0067758 51.1449 0.540483 50.8055 2.19261L46.5393 23.4621C46.4917 23.6559 46.2983 23.6559 46.2473 23.4621L41.9811 2.19261C41.6416 0.54387 40.6709 0.0067758 39.4118 0.0067758H36.0177C33.9812 0.0067758 33.4959 1.07419 33.8353 2.63108L39.9921 31.0868C40.4774 33.2215 41.3973 34 43.4812 34H49.2986C51.3825 34 52.3532 33.2215 52.7876 31.0868L59.3891 0.540483C59.44 0.24813 59.2941 0.0067758 59.0022 0.0067758ZM70.0088 8.06658H79.4652C80.8701 8.06658 81.596 7.33913 81.596 5.93185V2.14499C81.596 0.734224 80.8701 0.0067758 79.4652 0.0067758H63.8048C62.3996 0.0067758 61.6733 0.734224 61.6733 2.14499V31.8653C61.6733 33.2725 62.3996 34 63.8048 34H81.2131C81.4534 34 81.6 33.8539 81.6 33.6125V31.1819V30.7129V28.075C81.6 26.6676 80.8731 25.9402 79.4682 25.9402H70.0128C69.8194 25.9402 69.7236 25.8417 69.7236 25.6479V21.0826C69.7236 20.8889 69.8194 20.7903 70.0128 20.7903H78.0125C79.4204 20.7903 80.1472 20.0628 80.1472 18.6555V14.8686C80.1472 13.4613 79.4204 12.7339 78.0125 12.7339H70.0128C69.8194 12.7339 69.7236 12.6353 69.7236 12.4415V8.36232C69.7206 8.16519 69.8154 8.06658 70.0088 8.06658Z" fill="#F5F5F7"/>
</svg>
