<svg width="20" height="16" viewBox="0 0 20 16" fill="none" xmlns="http://www.w3.org/2000/svg">
<g id="Group">
<g id="Bold">
<path id="Shape" fill-rule="evenodd" clip-rule="evenodd" d="M3.28333 0.916992H16.7167C18.53 0.916992 20 2.38699 20 4.20033V11.8003C20 13.6137 18.53 15.0837 16.7167 15.0837H3.28333C1.47 15.0837 0 13.6137 0 11.8003V4.20033C0 2.38699 1.47 0.916992 3.28333 0.916992ZM8.14167 11.6344L13.7833 8.00108V8.02608C13.9022 7.94933 13.9739 7.81754 13.9739 7.67608C13.9739 7.53463 13.9022 7.40283 13.7833 7.32608L8.14167 3.71775C8.01354 3.63554 7.85078 3.62976 7.71714 3.70265C7.5835 3.77555 7.50025 3.91552 7.5 4.06775V11.2844C7.50025 11.4366 7.5835 11.5766 7.71714 11.6495C7.85078 11.7224 8.01354 11.7166 8.14167 11.6344Z" fill="#F5F5F7"/>
</g>
</g>
</svg>
