<svg width="24" height="18" viewBox="0 0 24 18" fill="none" xmlns="http://www.w3.org/2000/svg">
<g id="Group">
<g id="social-video-youtube-clip">
<path id="Shape" d="M23.5 4.32181L23 4.32167V4.32181H23.5ZM20.062 0.882813V1.38281V0.882813ZM3.937 0.882813V0.382812L3.93686 0.382813L3.937 0.882813ZM0.500001 4.32181H1L1 4.32167L0.500001 4.32181ZM0.500001 13.4428L1 13.4431V13.4428H0.500001ZM3.937 16.8828L3.93686 17.3828H3.937V16.8828ZM20.062 16.8828V16.3828V16.8828ZM23.5 13.4428H23V13.4431L23.5 13.4428ZM9.5 12.8218H9C9 13.0045 9.09964 13.1727 9.25989 13.2604C9.42014 13.3481 9.61548 13.3415 9.76939 13.243L9.5 12.8218ZM9.5 4.16181L9.76948 3.74064C9.61557 3.64217 9.42021 3.63549 9.25994 3.72321C9.09966 3.81094 9 3.9791 9 4.16181H9.5ZM16.269 8.49281L16.5384 8.91404C16.6821 8.82216 16.769 8.6634 16.769 8.49286C16.769 8.32233 16.6821 8.16355 16.5385 8.07164L16.269 8.49281ZM24 4.32196C24.0003 3.27734 23.5855 2.2754 22.847 1.53663L22.1398 2.24363C22.6908 2.7948 23.0002 3.54231 23 4.32167L24 4.32196ZM22.847 1.53663C22.1084 0.797865 21.1066 0.382812 20.062 0.382812V1.38281C20.8414 1.38281 21.5888 1.69247 22.1398 2.24363L22.847 1.53663ZM20.062 0.382812H3.937V1.38281H20.062V0.382812ZM3.93686 0.382813C2.89243 0.383116 1.89091 0.798303 1.1526 1.53704L1.85992 2.24394C2.41074 1.69279 3.15794 1.38304 3.93715 1.38281L3.93686 0.382813ZM1.1526 1.53704C0.414301 2.27577 -0.000303209 3.27754 5.96046e-07 4.32196L1 4.32167C0.999774 3.54246 1.30909 2.79508 1.85992 2.24394L1.1526 1.53704ZM5.96046e-07 4.32181V13.4428H1V4.32181H5.96046e-07ZM6.55651e-07 13.4425C-0.000607073 14.4871 0.413863 15.4892 1.1522 16.2282L1.85961 15.5214C1.30877 14.9701 0.999547 14.2225 1 13.4431L6.55651e-07 13.4425ZM1.1522 16.2282C1.89054 16.9672 2.89223 17.3825 3.93686 17.3828L3.93715 16.3828C3.15779 16.3826 2.41046 16.0727 1.85961 15.5214L1.1522 16.2282ZM3.937 17.3828H20.062V16.3828H3.937V17.3828ZM20.062 17.3828C21.1068 17.3828 22.1088 16.9676 22.8474 16.2286L22.1401 15.5217C21.5891 16.073 20.8415 16.3828 20.062 16.3828V17.3828ZM22.8474 16.2286C23.586 15.4896 24.0006 14.4873 24 13.4425L23 13.4431C23.0005 14.2226 22.6911 14.9703 22.1401 15.5217L22.8474 16.2286ZM24 13.4428V4.32181H23V13.4428H24ZM10 12.8218V4.16181H9V12.8218H10ZM9.23053 4.58298L15.9995 8.91398L16.5385 8.07164L9.76948 3.74064L9.23053 4.58298ZM15.9996 8.07159L9.23061 12.4006L9.76939 13.243L16.5384 8.91404L15.9996 8.07159Z" fill="#F5F5F7"/>
</g>
</g>
</svg>
