<svg xmlns="http://www.w3.org/2000/svg" width="160" height="143" viewBox="0 0 160 143" fill="none">
  <path d="M80 124.868V139.733" stroke="#F5F5F7" stroke-linecap="round" stroke-linejoin="round"/>
  <path fill-rule="evenodd" clip-rule="evenodd" d="M100.712 85.6388C111.854 70.7428 123.335 55.3949 123.335 41.6223C123.335 14.8649 106.668 2.97266 80.0013 2.97266C53.3346 2.97266 36.668 14.8649 36.668 41.6223C36.668 55.3949 48.1485 70.7428 59.2911 85.6389C69.7964 99.683 80.0013 113.326 80.0013 124.868C80.0013 113.326 90.2062 99.683 100.712 85.6388ZM80.0013 62.4337C92.8879 62.4337 103.335 53.1161 103.335 41.6223C103.335 30.1285 92.8879 20.811 80.0013 20.811C67.1146 20.811 56.668 30.1285 56.668 41.6223C56.668 53.1161 67.1146 62.4337 80.0013 62.4337Z" fill="#F5F5F7"/>
  <path d="M100.712 85.6388L100.311 85.3394L100.712 85.6388ZM59.2911 85.6389L58.8907 85.9383L59.2911 85.6389ZM79.5013 124.868C79.5013 125.144 79.7251 125.368 80.0013 125.368C80.2774 125.368 80.5013 125.144 80.5013 124.868H79.5013ZM122.835 41.6223C122.835 48.3778 120.016 55.5659 115.768 62.9602C111.523 70.3496 105.887 77.8856 100.311 85.3394L101.112 85.9383C106.679 78.496 112.354 70.91 116.635 63.4583C120.913 56.0115 123.835 48.6394 123.835 41.6223H122.835ZM80.0013 3.47266C93.2704 3.47266 103.97 6.43264 111.346 12.6458C118.706 18.8462 122.835 28.3524 122.835 41.6223H123.835C123.835 28.1348 119.629 18.3161 111.99 11.881C104.366 5.45878 93.3989 2.47266 80.0013 2.47266V3.47266ZM37.168 41.6223C37.168 28.3524 41.2961 18.8462 48.6568 12.6458C56.0327 6.43264 66.7322 3.47266 80.0013 3.47266V2.47266C66.6037 2.47266 55.6366 5.45878 48.0125 11.881C40.3732 18.3161 36.168 28.1348 36.168 41.6223H37.168ZM59.6914 85.3394C54.1159 77.8856 48.4797 70.3496 44.2346 62.9602C39.9868 55.5659 37.168 48.3778 37.168 41.6223H36.168C36.168 48.6394 39.0894 56.0115 43.3675 63.4583C47.6484 70.91 53.3237 78.496 58.8907 85.9383L59.6914 85.3394ZM80.5013 124.868C80.5013 118.961 77.8944 112.57 74.0173 105.939C70.1358 99.301 64.9397 92.3555 59.6914 85.3394L58.8907 85.9383C64.1478 92.9664 69.3067 99.8642 73.154 106.444C77.0057 113.031 79.5013 119.232 79.5013 124.868H80.5013ZM100.311 85.3394C95.0629 92.3555 89.8668 99.301 85.9853 105.939C82.1082 112.57 79.5013 118.961 79.5013 124.868H80.5013C80.5013 119.232 82.9969 113.031 86.8485 106.444C90.6958 99.8642 95.8548 92.9663 101.112 85.9383L100.311 85.3394ZM102.835 41.6223C102.835 52.7877 92.6671 61.9337 80.0013 61.9337V62.9337C93.1088 62.9337 103.835 53.4445 103.835 41.6223H102.835ZM80.0013 21.311C92.6671 21.311 102.835 30.4569 102.835 41.6223H103.835C103.835 29.8001 93.1088 20.311 80.0013 20.311V21.311ZM57.168 41.6223C57.168 30.4569 67.3355 21.311 80.0013 21.311V20.311C66.8938 20.311 56.168 29.8001 56.168 41.6223H57.168ZM80.0013 61.9337C67.3355 61.9337 57.168 52.7877 57.168 41.6223H56.168C56.168 53.4445 66.8938 62.9337 80.0013 62.9337V61.9337Z" fill="#F5F5F7"/>
</svg>